<?xml version="1.0" encoding="UTF-8" standalone="no"?>
<!-- Created with Inkscape (http://www.inkscape.org/) -->

<svg
   width="163.80025mm"
   height="165.44392mm"
   viewBox="0 0 619.08756 625.29988"
   version="1.1"
   id="svg5"
   inkscape:version="1.3.1 (91b66b0783, 2023-11-16)"
   xml:space="preserve"
   sodipodi:docname="logo.svg"
   xmlns:inkscape="http://www.inkscape.org/namespaces/inkscape"
   xmlns:sodipodi="http://sodipodi.sourceforge.net/DTD/sodipodi-0.dtd"
   xmlns="http://www.w3.org/2000/svg"
   xmlns:svg="http://www.w3.org/2000/svg"><sodipodi:namedview
     id="namedview7"
     pagecolor="#ffffff"
     bordercolor="#555555"
     borderopacity="0.56078431"
     inkscape:pageshadow="0"
     inkscape:pageopacity="0"
     inkscape:pagecheckerboard="0"
     inkscape:document-units="mm"
     showgrid="false"
     inkscape:showpageshadow="2"
     inkscape:deskcolor="#d1d1d1"
     inkscape:zoom="0.51215774"
     inkscape:cx="528.1576"
     inkscape:cy="500.82227"
     inkscape:window-width="1920"
     inkscape:window-height="1009"
     inkscape:window-x="-8"
     inkscape:window-y="-8"
     inkscape:window-maximized="1"
     inkscape:current-layer="g207"><inkscape:grid
       type="xygrid"
       id="grid824"
       color="#141414"
       opacity="0.13333333"
       empcolor="#323232"
       empopacity="0.28235294"
       spacingx="1.3229167"
       spacingy="1.3229167"
       originx="814.90593"
       originy="-319.77218"
       units="px"
       visible="false" /><inkscape:page
       x="0"
       y="0"
       width="619.08759"
       height="625.29987"
       id="page2"
       margin="0"
       bleed="0" /></sodipodi:namedview><defs
     id="defs2"><filter
       style="color-interpolation-filters:sRGB"
       inkscape:label="Drop Shadow"
       id="filter91"
       x="-0.13933242"
       y="-0.13933242"
       width="1.3947752"
       height="1.3947752"><feFlood
         result="flood"
         in="SourceGraphic"
         flood-opacity="0.498039"
         flood-color="rgb(0,0,0)"
         id="feFlood90" /><feGaussianBlur
         result="blur"
         in="SourceGraphic"
         stdDeviation="3.000000"
         id="feGaussianBlur90" /><feOffset
         result="offset"
         in="blur"
         dx="6.000000"
         dy="6.000000"
         id="feOffset90" /><feComposite
         result="comp1"
         operator="out"
         in="flood"
         in2="offset"
         id="feComposite90" /><feComposite
         result="comp2"
         operator="atop"
         in="comp1"
         in2="SourceGraphic"
         id="feComposite91" /></filter><filter
       style="color-interpolation-filters:sRGB"
       inkscape:label="Drop Shadow"
       id="filter93"
       x="-0.21775124"
       y="-0.21775124"
       width="1.6169618"
       height="1.6169618"><feFlood
         result="flood"
         in="SourceGraphic"
         flood-opacity="0.498039"
         flood-color="rgb(0,0,0)"
         id="feFlood91" /><feGaussianBlur
         result="blur"
         in="SourceGraphic"
         stdDeviation="3.000000"
         id="feGaussianBlur91" /><feOffset
         result="offset"
         in="blur"
         dx="6.000000"
         dy="6.000000"
         id="feOffset91" /><feComposite
         result="comp1"
         operator="out"
         in="flood"
         in2="offset"
         id="feComposite92" /><feComposite
         result="comp2"
         operator="atop"
         in="comp1"
         in2="SourceGraphic"
         id="feComposite93" /></filter><filter
       style="color-interpolation-filters:sRGB"
       inkscape:label="Drop Shadow"
       id="filter95"
       x="-0.13933242"
       y="-0.13933242"
       width="1.3947752"
       height="1.3947752"><feFlood
         result="flood"
         in="SourceGraphic"
         flood-opacity="0.498039"
         flood-color="rgb(0,0,0)"
         id="feFlood93" /><feGaussianBlur
         result="blur"
         in="SourceGraphic"
         stdDeviation="3.000000"
         id="feGaussianBlur93" /><feOffset
         result="offset"
         in="blur"
         dx="6.000000"
         dy="6.000000"
         id="feOffset93" /><feComposite
         result="comp1"
         operator="out"
         in="flood"
         in2="offset"
         id="feComposite94" /><feComposite
         result="comp2"
         operator="atop"
         in="comp1"
         in2="SourceGraphic"
         id="feComposite95" /></filter><filter
       style="color-interpolation-filters:sRGB"
       inkscape:label="Drop Shadow"
       id="filter97"
       x="-0.13933242"
       y="-0.13933242"
       width="1.3947752"
       height="1.3947752"><feFlood
         result="flood"
         in="SourceGraphic"
         flood-opacity="0.498039"
         flood-color="rgb(0,0,0)"
         id="feFlood95" /><feGaussianBlur
         result="blur"
         in="SourceGraphic"
         stdDeviation="3.000000"
         id="feGaussianBlur95" /><feOffset
         result="offset"
         in="blur"
         dx="6.000000"
         dy="6.000000"
         id="feOffset95" /><feComposite
         result="comp1"
         operator="out"
         in="flood"
         in2="offset"
         id="feComposite96" /><feComposite
         result="comp2"
         operator="atop"
         in="comp1"
         in2="SourceGraphic"
         id="feComposite97" /></filter><filter
       style="color-interpolation-filters:sRGB"
       inkscape:label="Drop Shadow"
       id="filter184"
       x="-0.05880563"
       y="-0.065728314"
       width="1.1543648"
       height="1.1725368"><feFlood
         result="flood"
         in="SourceGraphic"
         flood-opacity="0.498039"
         flood-color="rgb(0,0,0)"
         id="feFlood183" /><feGaussianBlur
         result="blur"
         in="SourceGraphic"
         stdDeviation="2.000000"
         id="feGaussianBlur183" /><feOffset
         result="offset"
         in="blur"
         dx="3.000000"
         dy="3.000000"
         id="feOffset183" /><feComposite
         result="comp1"
         operator="out"
         in="flood"
         in2="offset"
         id="feComposite183" /><feComposite
         result="comp2"
         operator="atop"
         in="comp1"
         in2="SourceGraphic"
         id="feComposite184" /></filter><filter
       style="color-interpolation-filters:sRGB"
       inkscape:label="Drop Shadow"
       id="filter186"
       x="-0.058805633"
       y="-0.065728315"
       width="1.1543648"
       height="1.1725368"><feFlood
         result="flood"
         in="SourceGraphic"
         flood-opacity="0.498039"
         flood-color="rgb(0,0,0)"
         id="feFlood184" /><feGaussianBlur
         result="blur"
         in="SourceGraphic"
         stdDeviation="2.000000"
         id="feGaussianBlur184" /><feOffset
         result="offset"
         in="blur"
         dx="3.000000"
         dy="3.000000"
         id="feOffset184" /><feComposite
         result="comp1"
         operator="out"
         in="flood"
         in2="offset"
         id="feComposite185" /><feComposite
         result="comp2"
         operator="atop"
         in="comp1"
         in2="SourceGraphic"
         id="feComposite186" /></filter><filter
       style="color-interpolation-filters:sRGB"
       inkscape:label="Drop Shadow"
       id="filter188"
       x="-0.058805627"
       y="-0.065728314"
       width="1.1543648"
       height="1.1725368"><feFlood
         result="flood"
         in="SourceGraphic"
         flood-opacity="0.498039"
         flood-color="rgb(0,0,0)"
         id="feFlood186" /><feGaussianBlur
         result="blur"
         in="SourceGraphic"
         stdDeviation="2.000000"
         id="feGaussianBlur186" /><feOffset
         result="offset"
         in="blur"
         dx="3.000000"
         dy="3.000000"
         id="feOffset186" /><feComposite
         result="comp1"
         operator="out"
         in="flood"
         in2="offset"
         id="feComposite187" /><feComposite
         result="comp2"
         operator="atop"
         in="comp1"
         in2="SourceGraphic"
         id="feComposite188" /></filter><filter
       style="color-interpolation-filters:sRGB"
       inkscape:label="Drop Shadow"
       id="filter190"
       x="-0.058805624"
       y="-0.04517103"
       width="1.1543648"
       height="1.118574"><feFlood
         result="flood"
         in="SourceGraphic"
         flood-opacity="0.498039"
         flood-color="rgb(0,0,0)"
         id="feFlood188" /><feGaussianBlur
         result="blur"
         in="SourceGraphic"
         stdDeviation="2.000000"
         id="feGaussianBlur188" /><feOffset
         result="offset"
         in="blur"
         dx="3.000000"
         dy="3.000000"
         id="feOffset188" /><feComposite
         result="comp1"
         operator="out"
         in="flood"
         in2="offset"
         id="feComposite189" /><feComposite
         result="comp2"
         operator="atop"
         in="comp1"
         in2="SourceGraphic"
         id="feComposite190" /></filter><filter
       style="color-interpolation-filters:sRGB"
       inkscape:label="Drop Shadow"
       id="filter192"
       x="-0.059379382"
       y="-0.065084509"
       width="1.1558709"
       height="1.1708468"><feFlood
         result="flood"
         in="SourceGraphic"
         flood-opacity="0.498039"
         flood-color="rgb(0,0,0)"
         id="feFlood190" /><feGaussianBlur
         result="blur"
         in="SourceGraphic"
         stdDeviation="2.000000"
         id="feGaussianBlur190" /><feOffset
         result="offset"
         in="blur"
         dx="3.000000"
         dy="3.000000"
         id="feOffset190" /><feComposite
         result="comp1"
         operator="out"
         in="flood"
         in2="offset"
         id="feComposite191" /><feComposite
         result="comp2"
         operator="atop"
         in="comp1"
         in2="SourceGraphic"
         id="feComposite192" /></filter><filter
       style="color-interpolation-filters:sRGB"
       inkscape:label="Drop Shadow"
       id="filter194"
       x="-0.37050443"
       y="-0.061823701"
       width="1.9725741"
       height="1.1622872"><feFlood
         result="flood"
         in="SourceGraphic"
         flood-opacity="0.498039"
         flood-color="rgb(0,0,0)"
         id="feFlood192" /><feGaussianBlur
         result="blur"
         in="SourceGraphic"
         stdDeviation="2.000000"
         id="feGaussianBlur192" /><feOffset
         result="offset"
         in="blur"
         dx="3.000000"
         dy="3.000000"
         id="feOffset192" /><feComposite
         result="comp1"
         operator="out"
         in="flood"
         in2="offset"
         id="feComposite193" /><feComposite
         result="comp2"
         operator="atop"
         in="comp1"
         in2="SourceGraphic"
         id="feComposite194" /></filter><filter
       style="color-interpolation-filters:sRGB"
       inkscape:label="Drop Shadow"
       id="filter196"
       x="-0.052799813"
       y="-0.064937123"
       width="1.1385995"
       height="1.1704599"><feFlood
         result="flood"
         in="SourceGraphic"
         flood-opacity="0.498039"
         flood-color="rgb(0,0,0)"
         id="feFlood194" /><feGaussianBlur
         result="blur"
         in="SourceGraphic"
         stdDeviation="2.000000"
         id="feGaussianBlur194" /><feOffset
         result="offset"
         in="blur"
         dx="3.000000"
         dy="3.000000"
         id="feOffset194" /><feComposite
         result="comp1"
         operator="out"
         in="flood"
         in2="offset"
         id="feComposite195" /><feComposite
         result="comp2"
         operator="atop"
         in="comp1"
         in2="SourceGraphic"
         id="feComposite196" /></filter><filter
       style="color-interpolation-filters:sRGB"
       inkscape:label="Drop Shadow"
       id="filter198"
       x="-0.37050427"
       y="-0.061823701"
       width="1.9725737"
       height="1.1622872"><feFlood
         result="flood"
         in="SourceGraphic"
         flood-opacity="0.498039"
         flood-color="rgb(0,0,0)"
         id="feFlood196" /><feGaussianBlur
         result="blur"
         in="SourceGraphic"
         stdDeviation="2.000000"
         id="feGaussianBlur196" /><feOffset
         result="offset"
         in="blur"
         dx="3.000000"
         dy="3.000000"
         id="feOffset196" /><feComposite
         result="comp1"
         operator="out"
         in="flood"
         in2="offset"
         id="feComposite197" /><feComposite
         result="comp2"
         operator="atop"
         in="comp1"
         in2="SourceGraphic"
         id="feComposite198" /></filter><filter
       style="color-interpolation-filters:sRGB"
       inkscape:label="Drop Shadow"
       id="filter200"
       x="-0.059379387"
       y="-0.06508451"
       width="1.1558709"
       height="1.1708468"><feFlood
         result="flood"
         in="SourceGraphic"
         flood-opacity="0.498039"
         flood-color="rgb(0,0,0)"
         id="feFlood198" /><feGaussianBlur
         result="blur"
         in="SourceGraphic"
         stdDeviation="2.000000"
         id="feGaussianBlur198" /><feOffset
         result="offset"
         in="blur"
         dx="3.000000"
         dy="3.000000"
         id="feOffset198" /><feComposite
         result="comp1"
         operator="out"
         in="flood"
         in2="offset"
         id="feComposite199" /><feComposite
         result="comp2"
         operator="atop"
         in="comp1"
         in2="SourceGraphic"
         id="feComposite200" /></filter><filter
       style="color-interpolation-filters:sRGB"
       inkscape:label="Drop Shadow"
       id="filter207"
       x="-0.02043988"
       y="-0.020225858"
       width="1.0545063"
       height="1.0539356"><feFlood
         result="flood"
         in="SourceGraphic"
         flood-opacity="0.498039"
         flood-color="rgb(0,0,0)"
         id="feFlood206" /><feGaussianBlur
         result="blur"
         in="SourceGraphic"
         stdDeviation="5.000000"
         id="feGaussianBlur206" /><feOffset
         result="offset"
         in="blur"
         dx="8.000000"
         dy="8.000000"
         id="feOffset206" /><feComposite
         result="comp1"
         operator="out"
         in="flood"
         in2="offset"
         id="feComposite206" /><feComposite
         result="comp2"
         operator="atop"
         in="comp1"
         in2="SourceGraphic"
         id="feComposite207" /></filter><filter
       style="color-interpolation-filters:sRGB"
       inkscape:label="Drop Shadow"
       id="filter209"
       x="-0.10791734"
       y="-0.10791734"
       width="1.2877796"
       height="1.2877796"><feFlood
         result="flood"
         in="SourceGraphic"
         flood-opacity="0.498039"
         flood-color="rgb(0,0,0)"
         id="feFlood207" /><feGaussianBlur
         result="blur"
         in="SourceGraphic"
         stdDeviation="5.000000"
         id="feGaussianBlur207" /><feOffset
         result="offset"
         in="blur"
         dx="8.000000"
         dy="8.000000"
         id="feOffset207" /><feComposite
         result="comp1"
         operator="in"
         in="flood"
         in2="offset"
         id="feComposite208" /><feComposite
         result="comp2"
         operator="over"
         in="SourceGraphic"
         in2="comp1"
         id="feComposite209" /></filter><filter
       style="color-interpolation-filters:sRGB"
       inkscape:label="Drop Shadow"
       id="filter211"
       x="-0.10791734"
       y="-0.10791734"
       width="1.2877796"
       height="1.2877796"><feFlood
         result="flood"
         in="SourceGraphic"
         flood-opacity="0.498039"
         flood-color="rgb(0,0,0)"
         id="feFlood209" /><feGaussianBlur
         result="blur"
         in="SourceGraphic"
         stdDeviation="5.000000"
         id="feGaussianBlur209" /><feOffset
         result="offset"
         in="blur"
         dx="8.000000"
         dy="8.000000"
         id="feOffset209" /><feComposite
         result="comp1"
         operator="in"
         in="flood"
         in2="offset"
         id="feComposite210" /><feComposite
         result="comp2"
         operator="over"
         in="SourceGraphic"
         in2="comp1"
         id="feComposite211" /></filter><filter
       style="color-interpolation-filters:sRGB"
       inkscape:label="Drop Shadow"
       id="filter213"
       x="-0.1268897"
       y="-0.1268897"
       width="1.3383725"
       height="1.3383725"><feFlood
         result="flood"
         in="SourceGraphic"
         flood-opacity="0.498039"
         flood-color="rgb(0,0,0)"
         id="feFlood211" /><feGaussianBlur
         result="blur"
         in="SourceGraphic"
         stdDeviation="5.000000"
         id="feGaussianBlur211" /><feOffset
         result="offset"
         in="blur"
         dx="8.000000"
         dy="8.000000"
         id="feOffset211" /><feComposite
         result="comp1"
         operator="in"
         in="flood"
         in2="offset"
         id="feComposite212" /><feComposite
         result="comp2"
         operator="over"
         in="SourceGraphic"
         in2="comp1"
         id="feComposite213" /></filter><filter
       style="color-interpolation-filters:sRGB"
       inkscape:label="Drop Shadow"
       id="filter211-0"
       x="-0.10791734"
       y="-0.10791734"
       width="1.2877796"
       height="1.2877796"><feFlood
         result="flood"
         in="SourceGraphic"
         flood-opacity="0.498039"
         flood-color="rgb(0,0,0)"
         id="feFlood209-9" /><feGaussianBlur
         result="blur"
         in="SourceGraphic"
         stdDeviation="5.000000"
         id="feGaussianBlur209-4" /><feOffset
         result="offset"
         in="blur"
         dx="8.000000"
         dy="8.000000"
         id="feOffset209-8" /><feComposite
         result="comp1"
         operator="in"
         in="flood"
         in2="offset"
         id="feComposite210-8" /><feComposite
         result="comp2"
         operator="over"
         in="SourceGraphic"
         in2="comp1"
         id="feComposite211-2" /></filter><filter
       style="color-interpolation-filters:sRGB"
       inkscape:label="Drop Shadow"
       id="filter209-4"
       x="-0.10791734"
       y="-0.10791734"
       width="1.2877796"
       height="1.2877796"><feFlood
         result="flood"
         in="SourceGraphic"
         flood-opacity="0.498039"
         flood-color="rgb(0,0,0)"
         id="feFlood207-5" /><feGaussianBlur
         result="blur"
         in="SourceGraphic"
         stdDeviation="5.000000"
         id="feGaussianBlur207-5" /><feOffset
         result="offset"
         in="blur"
         dx="8.000000"
         dy="8.000000"
         id="feOffset207-1" /><feComposite
         result="comp1"
         operator="in"
         in="flood"
         in2="offset"
         id="feComposite208-7" /><feComposite
         result="comp2"
         operator="over"
         in="SourceGraphic"
         in2="comp1"
         id="feComposite209-1" /></filter><filter
       style="color-interpolation-filters:sRGB"
       inkscape:label="Drop Shadow"
       id="filter213-1"
       x="-0.1268897"
       y="-0.1268897"
       width="1.3383725"
       height="1.3383725"><feFlood
         result="flood"
         in="SourceGraphic"
         flood-opacity="0.498039"
         flood-color="rgb(0,0,0)"
         id="feFlood211-5" /><feGaussianBlur
         result="blur"
         in="SourceGraphic"
         stdDeviation="5.000000"
         id="feGaussianBlur211-2" /><feOffset
         result="offset"
         in="blur"
         dx="8.000000"
         dy="8.000000"
         id="feOffset211-7" /><feComposite
         result="comp1"
         operator="in"
         in="flood"
         in2="offset"
         id="feComposite212-6" /><feComposite
         result="comp2"
         operator="over"
         in="SourceGraphic"
         in2="comp1"
         id="feComposite213-1" /></filter><filter
       style="color-interpolation-filters:sRGB"
       inkscape:label="Drop Shadow"
       id="filter207-4"
       x="-0.020439881"
       y="-0.020225858"
       width="1.0545063"
       height="1.0539356"><feFlood
         result="flood"
         in="SourceGraphic"
         flood-opacity="0.498039"
         flood-color="rgb(0,0,0)"
         id="feFlood206-2" /><feGaussianBlur
         result="blur"
         in="SourceGraphic"
         stdDeviation="5.000000"
         id="feGaussianBlur206-3" /><feOffset
         result="offset"
         in="blur"
         dx="8.000000"
         dy="8.000000"
         id="feOffset206-2" /><feComposite
         result="comp1"
         operator="out"
         in="flood"
         in2="offset"
         id="feComposite206-2" /><feComposite
         result="comp2"
         operator="atop"
         in="comp1"
         in2="SourceGraphic"
         id="feComposite207-1" /></filter><filter
       style="color-interpolation-filters:sRGB"
       inkscape:label="Drop Shadow"
       id="filter95-6"
       x="-0.13933242"
       y="-0.13933242"
       width="1.3947752"
       height="1.3947752"><feFlood
         result="flood"
         in="SourceGraphic"
         flood-opacity="0.498039"
         flood-color="rgb(0,0,0)"
         id="feFlood93-8" /><feGaussianBlur
         result="blur"
         in="SourceGraphic"
         stdDeviation="3.000000"
         id="feGaussianBlur93-5" /><feOffset
         result="offset"
         in="blur"
         dx="6.000000"
         dy="6.000000"
         id="feOffset93-7" /><feComposite
         result="comp1"
         operator="out"
         in="flood"
         in2="offset"
         id="feComposite94-6" /><feComposite
         result="comp2"
         operator="atop"
         in="comp1"
         in2="SourceGraphic"
         id="feComposite95-1" /></filter><filter
       style="color-interpolation-filters:sRGB"
       inkscape:label="Drop Shadow"
       id="filter93-8"
       x="-0.21775124"
       y="-0.21775124"
       width="1.6169618"
       height="1.6169618"><feFlood
         result="flood"
         in="SourceGraphic"
         flood-opacity="0.498039"
         flood-color="rgb(0,0,0)"
         id="feFlood91-9" /><feGaussianBlur
         result="blur"
         in="SourceGraphic"
         stdDeviation="3.000000"
         id="feGaussianBlur91-2" /><feOffset
         result="offset"
         in="blur"
         dx="6.000000"
         dy="6.000000"
         id="feOffset91-7" /><feComposite
         result="comp1"
         operator="out"
         in="flood"
         in2="offset"
         id="feComposite92-9" /><feComposite
         result="comp2"
         operator="atop"
         in="comp1"
         in2="SourceGraphic"
         id="feComposite93-5" /></filter><filter
       style="color-interpolation-filters:sRGB"
       inkscape:label="Drop Shadow"
       id="filter91-4"
       x="-0.13933242"
       y="-0.13933242"
       width="1.3947752"
       height="1.3947752"><feFlood
         result="flood"
         in="SourceGraphic"
         flood-opacity="0.498039"
         flood-color="rgb(0,0,0)"
         id="feFlood90-3" /><feGaussianBlur
         result="blur"
         in="SourceGraphic"
         stdDeviation="3.000000"
         id="feGaussianBlur90-1" /><feOffset
         result="offset"
         in="blur"
         dx="6.000000"
         dy="6.000000"
         id="feOffset90-2" /><feComposite
         result="comp1"
         operator="out"
         in="flood"
         in2="offset"
         id="feComposite90-3" /><feComposite
         result="comp2"
         operator="atop"
         in="comp1"
         in2="SourceGraphic"
         id="feComposite91-3" /></filter><filter
       style="color-interpolation-filters:sRGB"
       inkscape:label="Drop Shadow"
       id="filter97-4"
       x="-0.13933242"
       y="-0.13933242"
       width="1.3947752"
       height="1.3947752"><feFlood
         result="flood"
         in="SourceGraphic"
         flood-opacity="0.498039"
         flood-color="rgb(0,0,0)"
         id="feFlood95-1" /><feGaussianBlur
         result="blur"
         in="SourceGraphic"
         stdDeviation="3.000000"
         id="feGaussianBlur95-1" /><feOffset
         result="offset"
         in="blur"
         dx="6.000000"
         dy="6.000000"
         id="feOffset95-3" /><feComposite
         result="comp1"
         operator="out"
         in="flood"
         in2="offset"
         id="feComposite96-8" /><feComposite
         result="comp2"
         operator="atop"
         in="comp1"
         in2="SourceGraphic"
         id="feComposite97-7" /></filter></defs><g
     inkscape:label="Layer 1"
     inkscape:groupmode="layer"
     id="layer1"
     transform="translate(814.90591,-319.77218)"><g
       id="g207"
       transform="translate(38.559032,62.480752)"><circle
         style="fill:#ffffff;fill-opacity:1;stroke-width:2.56265;-inkscape-stroke:none;filter:url(#filter211)"
         id="path67-54"
         cx="381.93771"
         cy="367.74405"
         r="55.598106"
         inkscape:export-filename="icon.png"
         inkscape:export-xdpi="96"
         inkscape:export-ydpi="96" /><circle
         style="fill:#ffffff;fill-opacity:1;stroke-width:2.56265;-inkscape-stroke:none;filter:url(#filter209)"
         id="path67-54-4"
         cx="621.66754"
         cy="332.76627"
         r="55.598106" /><circle
         style="fill:#ffffff;fill-opacity:1;stroke-width:2.17949;-inkscape-stroke:none;filter:url(#filter213)"
         id="path67-54-4-4"
         cx="503.59967"
         cy="524.75751"
         r="47.28516" /><path
         style="fill:#ffffff;fill-opacity:1;stroke-width:1.8071;filter:url(#filter207)"
         d="m 362.64744,680.24208 c 1.03413,-56.46261 25.7894,-86.92193 155.23855,-88.19942 191.58152,-1.89065 187.45943,41.12585 176.55918,87.64107 -37.73494,27.58245 -83.7683,44.05147 -129.85498,50.30626 -94.02801,1.23006 -137.18431,-2.11375 -201.94275,-49.74791 z M 315.51845,641.46003 C 236.74563,562.82178 208.29152,438.81661 246.53638,334.07693 281.34464,229.63051 379.56265,150.55006 489.22081,139.53046 c 29.60101,-4.83148 59.45764,-2.65734 88.75644,3.34223 100.28872,17.34947 188.39736,90.73903 221.34617,187.36084 11.0469,29.56499 17.88311,60.54066 16.6713,92.14485 1.90022,27.20395 0.58337,54.35436 -7.11104,80.74899 -13.14065,54.86784 -39.35081,109.04297 -80.66971,147.64651 -4.30769,-25.37629 -4.41743,-61.36969 -35.45599,-70.4888 -40.04695,-12.14587 -82.51618,-6.69955 -123.78676,-7.94734 7.76686,-19.07417 17.71283,-40.19742 10.44221,-61.6164 -8.88062,-39.29186 -49.17398,-55.53631 -75.82982,-80.85971 -13.82473,-14.68598 -54.31401,-31.01919 -20.73398,-48.17819 15.38089,-12.57703 28.82217,-29.78146 44.81941,-40.65446 15.75418,-3.56878 20.52535,3.51068 20.26287,19.07815 6.49017,31.53894 43.71123,42.87394 64.13934,54.86791 1.88686,12.56329 -3.1527,29.00753 12.01344,35.09005 14.5071,9.12128 31.32635,-6.50017 26.24707,-21.65422 -0.13291,-10.73948 -2.60745,-22.72934 10.29126,-26.51023 32.43851,-20.26734 49.89509,-66.41141 29.6475,-100.92591 -17.3833,-36.63458 -84.89437,-74.49369 -132.30644,-12.12881 -4.22806,5.5615 -9.3653,26.22684 -25.01597,1.27454 -15.65067,-24.9523 -34.34638,-67.84313 -88.6336,-52.50767 -54.28721,15.33547 -51.20199,38.48419 -68.90357,49.60402 -17.70158,11.11983 -33.37149,5.06287 -54.87478,30.94819 -21.50329,25.88532 -24.7125,83.00999 10.27133,112.16185 32.19025,29.94282 68.14196,55.53643 101.62383,84.021 0.81202,14.66124 -3.1015,30.4388 6.46348,43.0323 11.00251,13.34233 2.02664,14.55333 -11.24848,13.15372 -17.39405,1.29199 -35.68707,-1.28766 -52.52175,2.41348 -25.51643,9.41122 -46.99011,34.96036 -44.41215,62.97962 0.7838,20.00849 -2.79511,20.29336 -15.19397,5.53306 z m 362.33063,-161.2494 c 10.65421,-18.9564 -20.69675,-38.16748 -30.0588,-17.19539 -9.36205,20.97209 19.40459,36.15179 30.0588,17.19539 z m -236.27839,-0.24508 c -10.6061,0.25784 -39.61983,-20.88991 -27.42951,-30.42039 12.19032,-9.53048 33.84553,-17.75922 52.83877,0.71645 18.99324,18.47567 -14.80316,29.4461 -25.40926,29.70394 z m 21.6346,-138.47386 c -1.10375,-26.37836 -29.19261,-42.8734 -42.23009,-56.28854 -13.03748,-13.41513 48.4629,-46.1083 75.09426,-15.79134 26.63135,30.31697 16.26441,52.22292 4.4458,61.86485 -11.81861,9.64193 -36.20622,36.59339 -37.30997,10.21503 z"
         id="path64"
         sodipodi:nodetypes="cscccccccccccccccccccccccszzzzccccccczzzzzzzzzzzz" /><path
         d="m 135.41883,835.82618 c -36.955447,-17.61447 -22.37547,-68.11189 19.63881,-68.01869 27.89127,0.0613 40.81055,16.67603 40.83091,52.5083 0.009,17.88735 -8.57357,28.4255 -10.75038,13.19821 -0.54458,-3.80937 -0.65101,-3.80064 -10.00456,0.82852 -13.56871,6.71505 -27.63648,7.2406 -39.71478,1.48366 z m 33.98772,-10.4613 c 10.32281,-4.68616 15.84871,-13.39835 14.65907,-23.1117 -3.84535,-31.39782 -55.22825,-31.10933 -58.24889,0.3271 -1.94044,20.1947 21.87382,32.64237 43.58982,22.7846 z"
         style="fill:#ff6600;stroke-width:1.85642;filter:url(#filter184)"
         id="path1-5" /><path
         d="m 867.66819,842.62419 c -36.95544,-17.61447 -22.37547,-68.11189 19.63882,-68.01869 27.89127,0.0613 40.81055,16.67603 40.8309,52.50829 0.009,17.88736 -8.57357,28.42551 -10.75038,13.19822 -0.54458,-3.80938 -0.651,-3.80064 -10.00456,0.82852 -13.56871,6.71504 -27.63648,7.2406 -39.71478,1.48366 z m 33.98772,-10.4613 c 10.32282,-4.68617 15.84871,-13.39835 14.65908,-23.1117 -3.84535,-31.39782 -55.22825,-31.10933 -58.24888,0.3271 -1.94045,20.1947 21.8738,32.64237 43.5898,22.7846 z"
         style="fill:#ff6600;stroke-width:1.85642;filter:url(#filter186)"
         id="path1-5-6" /><path
         d="m 524.75479,835.82618 c -36.95545,-17.61447 -22.37548,-68.11189 19.6388,-68.01869 27.89127,0.0613 40.81055,16.67603 40.83092,52.5083 0.009,17.88735 -8.57358,28.4255 -10.75038,13.19821 -0.54459,-3.80937 -0.65102,-3.80064 -10.00457,0.82852 -13.56871,6.71505 -27.63648,7.2406 -39.71477,1.48366 z m 33.98772,-10.4613 c 10.3228,-4.68616 15.8487,-13.39835 14.65907,-23.1117 -3.84536,-31.39782 -55.22826,-31.10933 -58.24889,0.3271 -1.94045,20.1947 21.87382,32.64237 43.58982,22.7846 z"
         style="fill:#ff6600;stroke-width:1.85642;filter:url(#filter188)"
         id="path1-5-2" /><path
         d="m 627.8477,837.49807 c -36.95544,-17.61446 -22.37548,-68.11188 19.63881,-68.0187 27.89127,0.0613 40.81055,16.67605 40.83091,52.5083 0.009,17.88736 -3.81616,52.43919 -14.60164,53.74962 -3.82001,0.46412 6.3969,-33.23015 -6.1533,-39.72287 -13.56871,6.71504 -27.63648,7.2406 -39.71478,1.48365 z m 33.98772,-10.46131 c 10.32281,-4.68616 15.8487,-13.39834 14.65907,-23.11168 -3.84535,-31.39784 -55.22825,-31.10935 -58.24888,0.3271 -1.94045,20.1947 21.87381,32.64237 43.58981,22.78458 z"
         style="fill:#ff6600;stroke-width:1.85642;filter:url(#filter190)"
         id="path1-5-2-8"
         sodipodi:nodetypes="cccscccssc" /><path
         d="m 227.96065,838.85532 c -2.43934,-2.43934 -1.2555,-33.5173 1.58334,-41.56322 17.76001,-50.33693 77.93328,-33.05691 77.93328,22.38026 0,19.49242 0,19.49242 -4.64105,19.49242 -4.59687,0 -4.64997,-0.18564 -5.56927,-19.49242 -0.98873,-20.76295 -4.81963,-30.89659 -13.41969,-35.49921 -24.65122,-13.19302 -45.98576,3.17838 -45.98576,35.28777 0,18.96241 -3.4923,25.80313 -9.90085,19.3944 z"
         style="fill:#ff6600;stroke-width:1.85642;filter:url(#filter192)"
         id="path1-95" /><path
         d="m 341.4306,839.84704 c -4.12017,-4.12033 -4.32857,-65.0165 -0.24131,-70.52078 7.16614,-9.65042 9.35257,-2.04874 9.89767,34.41172 0.56944,38.0893 -1.17035,44.59494 -9.65636,36.10906 z"
         style="fill:#ff6600;stroke-width:1.85642;filter:url(#filter194)"
         id="path1-6" /><path
         d="m 383.73907,838.37049 c -3.49712,-4.2137 -1.53154,-37.07382 2.71892,-45.45854 18.03563,-35.57748 70.63311,-33.53976 83.76028,3.24502 3.57438,10.01595 3.4794,40.16496 -0.13607,43.1655 -5.91083,4.90559 -8.3539,-0.88311 -8.3539,-19.79371 0,-24.54467 -6.21544,-35.16748 -23.66935,-40.45345 -4.17696,-1.26497 -4.17696,-1.26497 -4.17696,27.27991 0,29.94127 -1.59597,36.74562 -8.03908,34.27305 -2.57089,-0.9865 -3.08072,-5.53752 -3.51719,-31.39671 -0.5774,-34.20937 -0.41501,-33.94577 -15.04344,-24.41676 -10.29959,6.70929 -14.15055,16.48168 -14.20068,36.03628 -0.0483,18.46675 -3.37608,24.70858 -9.34261,17.51941 z"
         style="fill:#ff6600;stroke-width:1.85642;filter:url(#filter196)"
         id="path1-1" /><path
         d="m 712.98626,846.64505 c -4.12018,-4.12033 -4.32857,-65.0165 -0.24132,-70.52079 7.16614,-9.65041 9.35258,-2.04873 9.89768,34.41173 0.56944,38.0893 -1.17034,44.59493 -9.65636,36.10906 z"
         style="fill:#ff6600;stroke-width:1.85642;filter:url(#filter198)"
         id="path1-6-5" /><path
         d="m 745.5284,845.65332 c -2.43933,-2.43934 -1.25549,-33.51729 1.58334,-41.56321 17.76001,-50.33694 77.93328,-33.05691 77.93328,22.38026 0,19.49242 0,19.49242 -4.64105,19.49242 -4.59687,0 -4.64996,-0.18565 -5.56926,-19.49242 -0.98873,-20.76295 -4.81964,-30.89659 -13.41969,-35.49922 -24.65123,-13.19302 -45.98577,3.17839 -45.98577,35.28778 0,18.9624 -3.4923,25.80313 -9.90085,19.39439 z"
         style="fill:#ff6600;stroke-width:1.85642;filter:url(#filter200)"
         id="path1-95-7" /><circle
         style="fill:#ff6600;fill-opacity:1;stroke-width:1.19091;-inkscape-stroke:none;filter:url(#filter95)"
         id="path67"
         cx="381.93771"
         cy="367.74405"
         r="25.83749" /><circle
         style="fill:#ff6600;fill-opacity:1;stroke-width:0.762027;-inkscape-stroke:none;filter:url(#filter93)"
         id="path67-0"
         cx="473.6691"
         cy="282.41333"
         r="16.532627" /><circle
         style="fill:#ff6600;fill-opacity:1;stroke-width:1.19091;-inkscape-stroke:none;filter:url(#filter91)"
         id="path67-3"
         cx="621.66754"
         cy="332.76627"
         r="25.83749" /><circle
         style="fill:#ff6600;fill-opacity:1;stroke-width:1.19091;-inkscape-stroke:none;filter:url(#filter97)"
         id="path67-5"
         cx="503.59967"
         cy="524.75751"
         r="25.83749" /><circle
         style="fill:#ffffff;fill-opacity:1;stroke-width:2.56265;-inkscape-stroke:none;filter:url(#filter211-0)"
         id="path67-54-42"
         cx="-689.20856"
         cy="500.15277"
         r="55.598106"
         inkscape:export-filename="icon.png"
         inkscape:export-xdpi="96"
         inkscape:export-ydpi="96" /><circle
         style="fill:#ffffff;fill-opacity:1;stroke-width:2.56265;-inkscape-stroke:none;filter:url(#filter209-4)"
         id="path67-54-4-7"
         cx="-449.47873"
         cy="465.17496"
         r="55.598106" /><circle
         style="fill:#ffffff;fill-opacity:1;stroke-width:2.17949;-inkscape-stroke:none;filter:url(#filter213-1)"
         id="path67-54-4-4-7"
         cx="-567.54663"
         cy="657.1662"
         r="47.28516" /><path
         style="fill:#ffffff;fill-opacity:1;stroke-width:1.8071;filter:url(#filter207-4)"
         d="m -708.49884,812.65076 c 1.03413,-56.46261 25.7894,-86.92193 155.23855,-88.19942 191.58152,-1.89065 187.45943,41.12585 176.55918,87.64107 -37.73494,27.58245 -83.7683,44.05147 -129.85498,50.30626 -94.02801,1.23006 -137.18431,-2.11375 -201.94275,-49.74791 z m -47.12899,-38.78205 c -78.77282,-78.63825 -107.22693,-202.64341 -68.98207,-307.38309 34.80826,-104.44643 133.02627,-183.52688 242.68443,-194.54648 29.60101,-4.83148 59.45764,-2.65734 88.75644,3.34223 100.28872,17.34947 188.39735,90.73903 221.34615,187.36084 11.0469,29.565 17.8831,60.54066 16.6713,92.14485 1.9002,27.20396 0.5834,54.35436 -7.111,80.74899 -13.1407,54.86784 -39.3508,109.04297 -80.66973,147.64651 -4.30769,-25.37629 -4.41743,-61.36969 -35.45599,-70.4888 -40.04695,-12.14586 -82.51618,-6.69955 -123.78676,-7.94734 7.76686,-19.07417 17.71283,-40.19742 10.44221,-61.6164 -8.88062,-39.29186 -49.17398,-55.53631 -75.82982,-80.85971 -13.82473,-14.68598 -54.31401,-31.01919 -20.73398,-48.17819 15.38089,-12.57703 28.82217,-29.78146 44.81941,-40.65446 15.75418,-3.56878 20.52535,3.51068 20.26287,19.07815 6.49017,31.53894 43.71123,42.87394 64.13934,54.86791 1.88686,12.56329 -3.1527,29.00753 12.01344,35.09005 14.5071,9.12128 31.32635,-6.50017 26.24707,-21.65422 -0.13291,-10.73948 -2.60745,-22.72934 10.29126,-26.51023 32.43851,-20.26734 49.89509,-66.41141 29.6475,-100.92591 -17.3833,-36.63458 -84.89437,-74.49369 -132.30644,-12.12881 -4.22806,5.5615 -9.3653,26.22684 -25.01597,1.27454 -15.65067,-24.95229 -34.34638,-67.84313 -88.6336,-52.50767 -54.28721,15.33547 -51.20199,38.48419 -68.90357,49.60402 -17.70158,11.11983 -33.37149,5.06287 -54.87478,30.9482 -21.50329,25.88532 -24.7125,83.00999 10.27133,112.16184 32.19025,29.94282 68.14196,55.53643 101.62383,84.021 0.81202,14.66124 -3.1015,30.4388 6.46348,43.0323 11.00251,13.34233 2.02664,14.55333 -11.24848,13.15372 -17.39405,1.29199 -35.68707,-1.28766 -52.52175,2.41348 -25.51643,9.41122 -46.99011,34.96037 -44.41215,62.97962 0.7838,20.00849 -2.79511,20.29336 -15.19397,5.53306 z m 362.33063,-161.2494 c 10.65421,-18.9564 -20.69675,-38.16748 -30.0588,-17.19539 -9.36205,20.97209 19.40459,36.15179 30.0588,17.19539 z m -236.27839,-0.24508 c -10.6061,0.25784 -39.61983,-20.88991 -27.42951,-30.42039 12.19032,-9.53048 33.84553,-17.75922 52.83877,0.71645 18.99324,18.47567 -14.80316,29.4461 -25.40926,29.70394 z m 21.6346,-138.47386 c -1.10375,-26.37836 -29.19261,-42.8734 -42.23009,-56.28854 -13.03748,-13.41513 48.4629,-46.1083 75.09426,-15.79134 26.63135,30.31697 16.26441,52.22292 4.4458,61.86485 -11.81861,9.64193 -36.20622,36.59339 -37.30997,10.21503 z"
         id="path64-9"
         sodipodi:nodetypes="cscccccccccccccccccccccccszzzzccccccczzzzzzzzzzzz" /><circle
         style="fill:#ff6600;fill-opacity:1;stroke-width:1.19091;-inkscape-stroke:none;filter:url(#filter95-6)"
         id="path67-31"
         cx="-689.20856"
         cy="500.15277"
         r="25.83749" /><circle
         style="fill:#ff6600;fill-opacity:1;stroke-width:0.762027;-inkscape-stroke:none;filter:url(#filter93-8)"
         id="path67-0-9"
         cx="-597.47717"
         cy="414.82202"
         r="16.532627" /><circle
         style="fill:#ff6600;fill-opacity:1;stroke-width:1.19091;-inkscape-stroke:none;filter:url(#filter91-4)"
         id="path67-3-8"
         cx="-449.47873"
         cy="465.17496"
         r="25.83749" /><circle
         style="fill:#ff6600;fill-opacity:1;stroke-width:1.19091;-inkscape-stroke:none;filter:url(#filter97-4)"
         id="path67-5-6"
         cx="-567.54663"
         cy="657.1662"
         r="25.83749"
         inkscape:export-filename="..\..\Users\luigi\Documents\GitHub\animaquina.com\docs\assets\logo.svg"
         inkscape:export-xdpi="96"
         inkscape:export-ydpi="96" /></g></g></svg>
